<svg width="16" height="17" viewBox="0 0 16 17" fill="none" xmlns="http://www.w3.org/2000/svg">
<path d="M15.625 4.5399L12.0505 0.964836C11.9317 0.845951 11.7906 0.751644 11.6352 0.687302C11.4799 0.62296 11.3135 0.589844 11.1453 0.589844C10.9772 0.589844 10.8107 0.62296 10.6554 0.687302C10.5001 0.751644 10.359 0.845951 10.2401 0.964836L0.375211 10.8301C0.255833 10.9485 0.161187 11.0895 0.0967749 11.2448C0.0323627 11.4001 -0.000530757 11.5667 6.47604e-06 11.7348V15.3099C6.47604e-06 15.6494 0.134865 15.9749 0.374914 16.2149C0.614964 16.455 0.94054 16.5898 1.28002 16.5898H4.85526C5.02342 16.5904 5.19 16.5575 5.34534 16.4931C5.50067 16.4287 5.64164 16.334 5.76007 16.2147L15.625 6.35023C15.7439 6.23137 15.8382 6.09026 15.9025 5.93495C15.9669 5.77964 16 5.61317 16 5.44506C16 5.27695 15.9669 5.11049 15.9025 4.95518C15.8382 4.79987 15.7439 4.65876 15.625 4.5399ZM4.85526 15.3099H1.28002V11.7348L8.3201 4.69509L11.8953 8.27016L4.85526 15.3099ZM12.8002 7.36459L9.22491 3.79033L11.1449 1.8704L14.7202 5.44466L12.8002 7.36459Z" fill="#333333"/>
</svg>
