<svg width="24" height="24" viewBox="0 0 24 24" fill="none" xmlns="http://www.w3.org/2000/svg">
<g clip-path="url(#clip0_2783_15657)">
<path d="M3.55312 19.4905L8.59687 5.60613C8.64005 5.48733 8.71256 5.38136 8.80766 5.29807C8.90276 5.21479 9.01737 5.1569 9.14083 5.12977C9.2643 5.10265 9.39262 5.10717 9.51387 5.14292C9.63512 5.17867 9.74537 5.24449 9.83437 5.33426L18.6656 14.1655C18.7554 14.2545 18.8212 14.3648 18.857 14.486C18.8927 14.6073 18.8972 14.7356 18.8701 14.859C18.843 14.9825 18.7851 15.0971 18.7018 15.1922C18.6185 15.2873 18.5126 15.3598 18.3937 15.403L4.50937 20.4468C4.3758 20.4978 4.23029 20.5091 4.09043 20.4793C3.95058 20.4495 3.82235 20.3798 3.72123 20.2787C3.62011 20.1775 3.55043 20.0493 3.5206 19.9094C3.49077 19.7696 3.50206 19.6241 3.55312 19.4905V19.4905Z" stroke="white" stroke-width="2" stroke-linecap="round" stroke-linejoin="round"/>
<path d="M15.75 6.75C15.75 6.75 15.75 4.5 18 4.5C20.25 4.5 20.25 2.25 20.25 2.25" stroke="white" stroke-width="2" stroke-linecap="round" stroke-linejoin="round"/>
<path d="M9.59999 18.5999L5.39999 14.3999" stroke="white" stroke-width="2" stroke-linecap="round" stroke-linejoin="round"/>
<path d="M13.5 1.5V3.75" stroke="white" stroke-width="2" stroke-linecap="round" stroke-linejoin="round"/>
<path d="M20.25 10.5L21.75 12" stroke="white" stroke-width="2" stroke-linecap="round" stroke-linejoin="round"/>
<path d="M20.25 7.5L22.5 6.75" stroke="white" stroke-width="2" stroke-linecap="round" stroke-linejoin="round"/>
<path d="M7.20001 9.44995L14.55 16.7999" stroke="white" stroke-width="2" stroke-linecap="round" stroke-linejoin="round"/>
</g>
<defs>
<clipPath id="clip0_2783_15657">
<rect width="24" height="24" fill="white"/>
</clipPath>
</defs>
</svg>
