<svg width="23" height="22" viewBox="0 0 23 22" fill="none" xmlns="http://www.w3.org/2000/svg">
<path d="M11.9295 17.6233L16.8513 20.7483C17.4861 21.1487 18.2674 20.553 18.0818 19.8206L16.656 14.2151C16.6175 14.0597 16.6236 13.8966 16.6737 13.7446C16.7238 13.5925 16.8159 13.4577 16.9392 13.3557L21.3533 9.6741C21.9295 9.19558 21.6365 8.22878 20.8845 8.17996L15.1228 7.80886C14.9656 7.79971 14.8145 7.74497 14.6879 7.65132C14.5613 7.55767 14.4647 7.42917 14.4099 7.28152L12.2615 1.87136C12.2046 1.71502 12.101 1.57996 11.9648 1.48452C11.8285 1.38908 11.6661 1.33789 11.4998 1.33789C11.3334 1.33789 11.1711 1.38908 11.0348 1.48452C10.8985 1.57996 10.7949 1.71502 10.7381 1.87136L8.58963 7.28152C8.53487 7.42917 8.43829 7.55767 8.31169 7.65132C8.18509 7.74497 8.03395 7.79971 7.87674 7.80886L2.11502 8.17996C1.36306 8.22878 1.07009 9.19558 1.64627 9.6741L6.06033 13.3557C6.1837 13.4577 6.27575 13.5925 6.32585 13.7446C6.37596 13.8966 6.38209 14.0597 6.34353 14.2151L5.02517 19.4104C4.80056 20.2893 5.73806 21.0022 6.49002 20.5237L11.0701 17.6233C11.1985 17.5416 11.3476 17.4983 11.4998 17.4983C11.652 17.4983 11.801 17.5416 11.9295 17.6233V17.6233Z" stroke="white" stroke-width="2" stroke-linecap="round" stroke-linejoin="round"/>
</svg>
