<svg width="24" height="24" viewBox="0 0 24 24" fill="none" xmlns="http://www.w3.org/2000/svg">
<path d="M12.8803 2.25567C12.6731 2.2376 12.4645 2.26282 12.2675 2.32971C12.0706 2.3966 11.8898 2.50372 11.7365 2.64424C11.5831 2.78477 11.4607 2.95564 11.377 3.14601C11.2932 3.33637 11.25 3.54208 11.25 3.75005V7.56286C11.2474 7.91665 11.3711 8.25978 11.5988 8.53059C11.8264 8.8014 12.1432 8.98214 12.4922 9.04036C13.0498 9.13391 13.5696 9.38312 13.9917 9.75926C14.4138 10.1354 14.721 10.6232 14.8779 11.1663C15.0349 11.7095 15.0351 12.286 14.8786 12.8293C14.7222 13.3726 14.4154 13.8606 13.9936 14.2371C13.5718 14.6136 13.0522 14.8632 12.4947 14.9572C11.9372 15.0513 11.3644 14.9858 10.8425 14.7685C10.3206 14.5511 9.87067 14.1907 9.54469 13.7287C9.2187 13.2668 9.02989 12.7221 9.00001 12.1575C8.96157 11.3869 9.11907 10.7513 9.46876 10.2582C9.67428 9.97149 9.77118 9.62107 9.74216 9.26953C9.71313 8.91798 9.56007 8.58821 9.31032 8.33911L6.72095 5.6888C6.57335 5.54119 6.39657 5.42602 6.20192 5.35065C6.00727 5.27527 5.79902 5.24135 5.59051 5.25106C5.382 5.26076 5.17781 5.31388 4.991 5.40701C4.80419 5.50015 4.63888 5.63125 4.50563 5.79192C2.9428 7.66503 2.14206 10.0577 2.26261 12.4941C2.38316 14.9306 3.41616 17.2325 5.15626 18.9422C6.97575 20.7474 9.43697 21.7572 12 21.75H12.1397C14.6752 21.7069 17.0948 20.6804 18.8878 18.8872C20.6808 17.094 21.7071 14.6743 21.75 12.1388C21.8203 7.04817 17.9241 2.70755 12.8803 2.25567ZM5.65501 6.74442L8.24345 9.38723V9.39286C7.85923 9.94424 7.61795 10.5824 7.54126 11.25H3.78376C3.93396 9.59262 4.58684 8.02061 5.65501 6.74442ZM3.7847 12.75H7.56282C7.71836 13.6716 8.15694 14.5218 8.81768 15.1827C9.47842 15.8436 10.3285 16.2824 11.25 16.4382V20.2163C9.32911 20.0408 7.53043 19.1978 6.16658 17.8338C4.80273 16.4698 3.95994 14.671 3.7847 12.75ZM17.8256 17.8257C16.4671 19.1936 14.67 20.0391 12.75 20.2135V16.4382C13.6192 16.2935 14.4259 15.8945 15.0684 15.2916C15.6827 14.7193 16.1246 13.9866 16.3442 13.1763C16.5639 12.366 16.5524 11.5105 16.3112 10.7063C16.07 9.90217 15.6087 9.18154 14.9794 8.62587C14.35 8.07021 13.5778 7.70167 12.75 7.56192V3.75005C17.0175 4.13255 20.3128 7.80755 20.25 12.1172C20.2205 14.2641 19.3501 16.3137 17.8256 17.8257Z" fill="white"/>
</svg>
